<mxfile host="app.diagrams.net" modified="2024-01-29T13:38:29.887Z" agent="Mozilla/5.0 (Macintosh; Intel Mac OS X 10_15_7) AppleWebKit/537.36 (KHTML, like Gecko) Chrome/121.0.0.0 Safari/537.36" version="23.0.2" etag="uJbScCqByscwQ424mMvQ" type="github">
  <diagram name="Page-1" id="N5_7dIzfm9vI_upbAULi">
    <mxGraphModel>
      <root>
        <mxCell id="0" />
        <mxCell id="1" parent="0" />
      </root>
    </mxGraphModel>
  </diagram>
</mxfile>
